Coordinates
version=1
nRows=5
nColumns=40
inDegrees=yes

Units are S.I. units (second, meters, Newtons, ...)
Angles are in degrees.

endheader
time	pelvis_tilt	pelvis_list	pelvis_rotation	pelvis_tx	pelvis_ty	pelvis_tz	hip_flexion_r	hip_adduction_r	hip_rotation_r	knee_angle_r	knee_angle_r_beta	ankle_angle_r	subtalar_angle_r	mtp_angle_r	hip_flexion_l	hip_adduction_l	hip_rotation_l	knee_angle_l	knee_angle_l_beta	ankle_angle_l	subtalar_angle_l	mtp_angle_l	lumbar_extension	lumbar_bending	lumbar_rotation	arm_flex_r	arm_add_r	arm_rot_r	elbow_flex_r	pro_sup_r	wrist_flex_r	wrist_dev_r	arm_flex_l	arm_add_l	arm_rot_l	elbow_flex_l	pro_sup_l	wrist_flex_l	wrist_dev_l
     20.07250000	     -5.98770700	     -3.71412739	     -2.85261932	      0.81544812	      0.92009358	      0.51636871	     24.16011361	      1.95504421	    -11.01987081	     21.19260088	     21.19260088	      4.56746067	     -4.77802148	     -3.57610916	      9.01430195	     -8.58214141	     -5.87524597	     38.30441204	     38.30441204	     14.29306328	    -16.20785621	     -4.71925395	     -9.62533385	      7.32188344	     -0.69850432	     -2.89582920	    -12.83834209	     -5.26092746	     32.62044279	     46.01771192	      0.00000000	      0.00000000	     13.10772208	    -13.81539412	     -7.44898134	     57.11746241	     47.09673152	      0.00000000	      0.00000000
     20.08542857	     -5.84814521	     -3.82939540	     -2.56142995	      0.81565699	      0.92095606	      0.51853417	     23.47614559	      2.06869432	    -11.49106086	     21.14305875	     21.14305875	      5.06932666	     -4.38566527	     -3.74859617	     10.58657434	     -9.06000789	     -5.29857075	     41.81426292	     41.81426292	     12.96390502	    -17.20803320	     -4.37248718	     -9.77459767	      7.47434634	     -0.78226102	     -1.36251229	    -13.16596689	     -5.32226742	     33.69476556	     45.98910036	      0.00000000	      0.00000000	     12.26997267	    -13.20057821	     -7.14501890	     55.13968168	     47.03951834	      0.00000000	      0.00000000
     20.09835714	     -5.78438041	     -3.75467647	     -2.26983701	      0.81573979	      0.92182198	      0.52040078	     22.84782012	      1.91517546	    -12.14597202	     21.05446743	     21.05446743	      5.71268451	     -3.40181956	     -3.68036996	     12.40432613	     -9.18898082	     -4.56222938	     45.52396133	     45.52396133	     13.42247774	    -17.42339594	      0.64538532	     -9.70373125	      7.49401667	      0.14142395	     -1.47073207	    -13.87283508	     -5.29239126	     37.27522745	     45.83456232	      0.00000000	      0.00000000	     13.55118602	    -11.89937875	     -6.23836364	     48.51185893	     46.89247252	      0.00000000	      0.00000000
     20.11128571	     -5.67843178	     -3.91277000	     -2.01149486	      0.81567260	      0.92258733	      0.52241961	     22.12300814	      2.08845643	    -12.67552689	     20.83319249	     20.83319249	      6.13714213	     -2.85736163	     -3.87276308	     14.01421442	     -9.72204777	     -4.18131159	     48.63427152	     48.63427152	     12.27487723	    -18.03254853	      1.21220976	     -9.82725437	      7.70937353	      0.15253996	      0.18239108	    -14.28038272	     -5.46455747	     38.13610046	     45.82219436	      0.00000000	      0.00000000	     12.40912203	    -11.35640052	     -5.91714408	     47.22185347	     46.83696494	      0.00000000	      0.00000000
     20.12421429	     -5.58379045	     -3.86629869	     -1.79265798	      0.81534576	      0.92348865	      0.52418312	     21.43238817	      1.97497041	    -13.41260939	     20.63388021	     20.63388021	      6.54376106	     -1.69467224	     -4.04639012	     15.76416148	     -9.86360421	     -3.63968292	     51.77699589	     51.77699589	     13.27156777	    -18.04779609	      7.18361869	     -9.87360167	      7.65967452	      0.58273075	      1.26915114	    -14.83245717	     -5.58436689	     39.92658034	     45.76369840	      0.00000000	      0.00000000	     12.61545339	    -10.56936440	     -5.09641411	     42.58414430	     46.71059262	      0.00000000	      0.00000000
